HIERARCHY
ROOT hip
{
	OFFSET 0.000000 0.000000 0.000000 
	CHANNELS 6 Xposition Yposition Zposition Xrotation Zrotation Yrotation
	JOINT abdomen
	{
		OFFSET 0.000000 3.402643 0.000000 
		CHANNELS 3 Xrotation Zrotation Yrotation
		JOINT chest
		{
			OFFSET 0.000000 8.438565 -0.680529 
			CHANNELS 3 Xrotation Zrotation Yrotation
			JOINT neck
			{
				OFFSET 0.000000 10.207942 -0.272212 
				CHANNELS 3 Xrotation Zrotation Yrotation
				JOINT head
				{
					OFFSET 0.000000 3.130431 0.000000 
					CHANNELS 3 Xrotation Zrotation Yrotation
					End Site
					{
						OFFSET 0.000000 3.130435 0.000000 
					}
				}
			}
			JOINT lCollar
			{
				OFFSET 3.470700 6.669187 -0.816635 
				CHANNELS 3 Yrotation Zrotation Xrotation
				JOINT lShldr
				{
					OFFSET 3.198488 0.000000 0.000000 
					CHANNELS 3 Zrotation Yrotation Xrotation
					JOINT lForeArm
					{
						OFFSET 10.139888 0.000000 0.000000 
						CHANNELS 3 Yrotation Zrotation Xrotation
						JOINT lHand
						{
							OFFSET 8.370511 0.000000 0.000000 
							CHANNELS 3 Zrotation Yrotation Xrotation
							End Site
							{
								OFFSET 4.083176 0.000000 0.000000 
							}
						}
					}
				}
			}
			JOINT rCollar
			{
				OFFSET -3.470700 6.669187 -0.816635 
				CHANNELS 3 Yrotation Zrotation Xrotation
				JOINT rShldr
				{
					OFFSET -3.198488 0.000000 0.000000 
					CHANNELS 3 Zrotation Yrotation Xrotation
					JOINT rForeArm
					{
						OFFSET -10.139888 0.000000 0.000000 
						CHANNELS 3 Yrotation Zrotation Xrotation
						JOINT rHand
						{
							OFFSET -8.370511 0.000000 0.000000 
							CHANNELS 3 Zrotation Yrotation Xrotation
							End Site
							{
								OFFSET -4.083176 0.000000 0.000000 
							}
						}
					}
				}
			}
		}
	}
	JOINT lThigh
	{
		OFFSET 5.308129 -1.633274 1.361059 
		CHANNELS 3 Xrotation Zrotation Yrotation
		JOINT lShin
		{
			OFFSET -2.041588 -20.007561 0.000000 
			CHANNELS 3 Xrotation Zrotation Yrotation
			JOINT lFoot
			{
				OFFSET 0.000000 -19.190928 -1.224953 
				CHANNELS 3 Xrotation Yrotation Zrotation
				End Site
				{
					OFFSET 0.000000 -2.449906 4.627600 
				}
			}
		}
	}
	JOINT rThigh
	{
		OFFSET -5.308129 -1.633274 1.361059 
		CHANNELS 3 Xrotation Zrotation Yrotation
		JOINT rShin
		{
			OFFSET 2.041588 -20.007561 0.000000 
			CHANNELS 3 Xrotation Zrotation Yrotation
			JOINT rFoot
			{
				OFFSET 0.000000 -19.190928 -1.224953 
				CHANNELS 3 Xrotation Yrotation Zrotation
				End Site
				{
					OFFSET 0.000000 -2.449906 4.627600 
				}
			}
		}
	}
}
MOTION
Frames: 14
Frame Time: 0.033333
-10.301459 40.353157 54.481598 2.636719 -14.238173 97.507317 23.779299 1.464844 1.640875 -14.921875 -6.357422 1.513672 -19.726563 -0.126953 31.669924 13.105469 -17.197266 30.836958 5.273438 0.429681 -0.058667 -50.205078 2.353516 -34.482208 -77.519531 -3.476562 -75.068359 31.542988 -130.986328 -23.659714 6.669922 -0.292969 -0.136669 70.800781 -12.343749 -3.634898 47.646481 3.388672 -47.509769 15.224609 -5.673828 -1.817370 -34.121037 36.684425 36.747921 43.847992 -0.606646 -2.837886 -2.783042 5.744638 -6.595312 -40.031956 -23.179371 -2.472741 59.298187 -0.868865 3.184207 -32.023399 0.542398 7.761423 
-10.417793 39.888302 54.573811 4.570313 -14.775393 95.925247 24.511719 1.533203 0.917969 -15.283204 -7.412109 0.791016 -20.761717 -0.107422 32.021465 12.744141 -17.021486 31.198317 5.625000 0.781250 -0.097789 -49.199215 2.636719 -37.724377 -74.648445 -3.388672 -77.548828 32.167976 -131.240234 -24.079611 6.845703 -0.458984 -0.117188 71.816406 -14.707033 -6.662636 46.455078 3.593750 -51.279293 14.492188 -5.566407 -1.690400 -34.297031 37.028564 39.009090 46.297230 -0.130826 -3.096813 -2.686341 3.534424 -6.924069 -43.373810 -24.421160 0.197963 62.107018 -0.712955 3.202539 -32.858021 0.834895 8.025397 
-10.516801 39.426479 54.558781 5.976563 -15.292968 95.087891 25.244141 2.148438 0.205078 -15.458984 -8.115234 -0.089269 -21.982422 0.078125 32.187492 12.568360 -16.669922 31.383913 5.615234 1.328125 0.029297 -48.701172 2.919922 -40.868889 -71.425781 -3.457031 -80.360741 33.183601 -132.070313 -24.509205 6.845703 -0.458984 -0.117188 72.470703 -16.542967 -10.930512 45.751949 3.535156 -55.966793 13.867188 -6.767578 -1.914062 -34.824760 37.921329 40.173149 48.591934 -0.424177 -2.998260 -3.161121 1.415461 -7.018275 -45.920742 -25.787598 1.531515 64.743340 -0.888642 3.382468 -34.023502 1.493342 8.347097 
-10.600054 38.999550 54.405735 7.021484 -15.644531 94.557915 25.976564 2.880860 -0.282712 -15.458984 -7.939454 -0.792365 -23.027344 -0.273438 32.382835 12.216798 -16.494141 31.569492 5.615234 1.855469 -0.019531 -48.251953 3.251953 -43.613281 -67.265625 -3.349610 -83.612709 34.443359 -132.861328 -25.290359 6.669922 -0.634766 -0.097656 72.880859 -17.714846 -15.488280 45.361328 3.613281 -59.834602 13.242188 -7.802735 -2.149763 -34.824505 38.435928 42.594433 50.183434 -0.268243 -2.998082 -7.207228 3.099854 -6.676413 -48.483776 -27.069080 2.283513 67.025017 -1.073332 3.360345 -34.459896 2.113186 8.851497 
-10.676276 38.612133 54.125923 7.558595 -16.005859 94.167229 26.884766 3.554688 -0.605469 -15.634764 -7.412109 -1.329385 -23.554686 -0.615234 32.402241 11.503906 -16.328125 31.764833 5.263672 2.197266 -0.039437 -47.539063 3.623047 -46.035156 -62.490234 -3.212891 -85.761177 33.759766 -132.949219 -24.860664 6.669922 -0.810547 -0.078125 72.802734 -18.779297 -20.068361 44.941406 3.623047 -63.955078 11.093750 -8.134767 -1.954507 -34.316563 39.287224 45.969868 52.098648 -0.107015 -3.209784 -12.363072 11.032303 -4.605985 -50.344627 -28.434099 2.580174 68.618851 -1.074178 3.076894 -34.426285 3.279305 9.780578 
-10.753469 38.275249 53.692333 7.724609 -16.171877 94.033203 27.783205 4.277344 -0.526616 -15.810546 -7.236329 -1.680918 -24.257811 -0.273438 32.382763 10.976563 -16.503906 31.774572 5.078125 3.095703 0.058594 -47.509766 4.042969 -48.436810 -58.388672 -3.291016 -86.005295 33.271492 -131.718750 -24.792448 6.494141 -0.458984 -0.117188 72.490234 -18.876955 -25.781250 44.267578 3.798828 -67.735023 8.955078 -8.623047 -1.728516 -34.327431 40.875759 49.312767 55.797161 0.072284 -3.277414 -14.370549 19.058058 -1.899979 -51.986622 -29.694500 2.240026 69.823318 -1.582038 3.316690 -34.128822 3.809847 10.168221 
-10.827995 38.002098 53.116596 7.373046 -16.523436 93.857422 28.691404 5.107422 -0.234375 -15.976563 -6.699219 -1.690592 -25.146486 -0.097656 32.197266 10.976563 -16.328125 31.598822 4.726563 3.613281 0.038447 -47.294922 4.482423 -50.614475 -53.789063 -3.378906 -85.731842 32.050800 -130.595703 -24.159607 6.318359 -0.283203 -0.146436 71.718750 -18.505859 -31.650393 43.183594 3.662110 -71.699844 6.425781 -9.296875 -1.378531 -34.192177 42.377361 52.891033 60.010921 0.245659 -3.401977 -17.629812 25.192911 1.281751 -52.835831 -30.914795 1.961846 70.174896 -1.249430 3.379768 -33.931236 4.826355 10.712307 
-10.896465 37.802151 52.407688 6.494140 -16.884766 93.984375 29.580078 5.712890 0.166016 -16.318357 -6.171875 -1.700269 -26.044922 0.410156 31.826242 11.152344 -16.152346 31.423063 4.716797 4.511719 0.136719 -46.679688 5.019531 -52.060547 -49.189453 -3.369141 -85.780670 31.611345 -129.824219 -24.021170 6.318359 0.078125 -0.009779 70.722656 -17.978516 -37.480473 42.255859 3.583984 -74.356079 4.824219 -9.355469 -1.298828 -34.174427 44.202408 55.647926 63.868908 0.216986 -3.757182 -21.094004 29.362368 4.151658 -53.238781 -31.980560 0.794907 69.656029 -1.415960 3.248140 -33.402321 6.160496 11.680647 
-10.949662 37.699387 51.556252 5.273438 -17.402090 94.508759 30.136717 6.484375 0.625000 -16.494141 -5.292969 -1.524339 -26.767576 1.093750 31.435734 11.152344 -16.152346 31.247286 5.585938 5.048829 0.194453 -46.113281 5.380860 -53.172913 -45.322262 -3.359375 -84.833412 31.396494 -128.730453 -24.167774 5.966797 0.253906 -0.029340 69.482422 -17.167969 -44.042965 40.634762 3.623047 -76.230469 2.470703 -11.035156 -0.927734 -34.936840 44.992779 57.685837 66.488777 0.899387 -3.477360 -22.359867 31.355236 5.708178 -52.943645 -33.150925 -0.228777 68.618942 -1.064297 3.083375 -31.872801 7.174438 11.842254 
-10.922034 37.693569 50.534328 3.681641 -17.763672 95.966797 30.322266 6.865235 1.133980 -16.484375 -4.062500 -1.172567 -27.685547 1.416016 30.898676 11.503906 -15.976563 30.710203 6.640625 4.882813 0.116356 -45.507813 5.732421 -53.426762 -42.519527 -3.408203 -83.671303 30.966822 -128.164063 -24.021353 5.615234 0.078125 -0.009766 67.597656 -16.425779 -49.231277 38.759766 3.544922 -78.145134 -1.953125 -11.455078 -0.078125 -35.765739 45.962059 58.400131 68.601654 0.713934 -3.321746 -24.683899 31.515131 6.987687 -51.450932 -34.254944 -2.137212 66.483505 -1.416006 3.152406 -30.405270 7.229171 11.506674 
-10.728263 37.789059 49.313538 1.757813 -17.763674 98.375923 29.980467 7.304688 1.464844 -16.474607 -3.007812 -0.811059 -28.066404 1.562500 30.361597 12.041015 -15.976563 30.166016 7.685547 5.078125 0.174917 -45.449219 6.933594 -52.792969 -41.474609 -3.417969 -83.026764 30.644545 -128.242188 -23.660015 5.087890 -0.107422 -0.166016 65.791016 -16.572266 -53.664890 36.962891 3.486328 -80.312500 -6.953125 -11.005860 0.878906 -37.160027 45.964798 57.961086 70.353470 0.889605 -3.630162 -25.934475 31.217913 7.827723 -47.349342 -35.601971 -4.263976 63.344746 -0.888676 3.151216 -28.481165 6.343118 10.865682 
-10.288734 37.994705 47.859711 -0.712891 -16.875000 102.646484 28.964842 8.134766 1.757813 -16.113281 -1.250000 -0.800781 -27.773438 2.050781 29.462893 13.457031 -16.494141 29.079260 7.841796 5.625000 0.263672 -46.845703 10.039063 -50.105717 -43.212891 -3.417969 -84.003319 31.416029 -128.935547 -24.011503 4.033203 -0.107422 -0.165997 63.740234 -17.197266 -57.763668 35.087891 3.574219 -81.563110 -10.878907 -11.494141 1.699219 -38.559174 45.080978 56.294006 71.751160 1.055462 -3.740746 -27.535231 31.556164 8.632795 -40.248188 -36.546143 -7.999815 58.780689 -0.536804 3.168734 -26.194538 4.312948 9.242754 
-9.611933 38.285789 46.138195 -3.691406 -15.478517 109.108719 26.572268 9.238281 1.808208 -15.917970 1.035156 -0.966794 -26.621094 2.324219 28.037109 15.585937 -17.197268 27.441406 7.128906 6.142578 0.263672 -48.525391 15.478517 -43.210285 -48.515621 -3.193359 -89.198677 33.750015 -131.943359 -25.222105 2.275391 -0.449219 0.009842 61.914059 -18.271484 -60.839840 34.550781 3.447266 -82.100197 -14.189453 -9.394531 1.826172 -40.284954 43.218792 52.810005 72.814354 1.054900 -3.796182 -29.192474 30.360962 9.005093 -30.010181 -36.465294 -13.236087 53.520817 -0.507797 2.981914 -22.924114 -0.137202 7.039569 
-8.797103 38.649216 44.102459 -6.865235 -13.535156 117.939461 22.958984 10.087891 0.986328 -15.898438 3.496094 -1.494141 -25.009766 3.242188 25.518131 17.890625 -18.066406 24.567286 6.240234 7.011719 0.262480 -50.253902 22.167971 -33.795139 -58.525391 -3.066406 -94.316406 36.025394 -134.462891 -26.051893 -0.009766 -0.625000 -0.009766 59.648438 -19.091797 -66.438736 33.398438 3.623047 -79.316406 -16.777344 -9.316407 2.361700 -42.579033 39.075455 46.010307 72.627739 0.859249 -3.733511 -30.007757 27.976366 8.926852 -19.140100 -34.196297 -15.848959 48.764748 -0.156228 3.105703 -17.215490 -9.543495 3.989397 
